<svg width="308" height="307" viewBox="0 0 308 307" fill="none" xmlns="http://www.w3.org/2000/svg">
<path d="M305.176 72.1833L287.7 86.5291C287.783 86.6328 287.855 86.745 287.914 86.8638C289.846 90.8806 296.855 188.456 296.855 188.456L287.867 262.839L259.876 246.915L219.082 278.978L213.646 283.258L200.413 293.658L154.231 307L108.072 293.658L94.7202 283.186L89.0934 278.739L48.5615 246.915L20.4991 262.815L11.6059 188.432C11.6059 188.432 18.4963 92.4108 20.4991 86.9594L2.52199 72.1833C2.52199 72.1833 -3.15248 22.3077 2.52199 18.53C8.19645 14.7523 59.0998 0 59.0998 0L44.556 32.7562L56.048 49.493L120.16 38.7097H188.206L251.65 49.2778L263.047 32.7562L248.503 0C248.503 0 299.43 14.7044 305.176 18.53C310.922 22.3555 305.176 72.1833 305.176 72.1833Z" fill="#2D2C3A"/>
<path d="M190.685 203.447L153.801 224.894L116.917 203.447L134.322 183.841H173.304L190.685 203.447Z" fill="white"/>
<path d="M212.668 127.988C206 129 181.816 144.032 181.816 144.032L168.44 167.702L225.996 149.483L241.827 123.517L212.668 127.988Z" fill="#F24333"/>
<path d="M94.9346 127.988C101.5 130 125.93 144.032 125.93 144.032L139.281 167.702L81.6068 149.483L65.7993 123.517L94.9346 127.988Z" fill="#F24333"/>
</svg>
