<svg width="436" height="129" viewBox="0 0 436 129" fill="none" xmlns="http://www.w3.org/2000/svg">
<g clip-path="url(#clip0_38_117)">
<path d="M216.61 10.59V68.33H200.15V27L189.47 68.33H178.22L167.11 27V68.33H153.83V10.59H177L185.38 41.26L193.38 10.59H216.61Z" fill="#F24333"/>
<path d="M269.45 68.33H253.37C252.964 66.3561 252.766 64.3451 252.78 62.33C249.727 66.93 245.117 69.23 238.95 69.23C233.87 69.23 230.067 67.9333 227.54 65.34C226.345 64.1797 225.395 62.7916 224.746 61.2578C224.096 59.724 223.761 58.0756 223.76 56.41C223.76 51.87 225.827 48.2033 229.96 45.41C234.093 42.6167 241.427 40.9333 251.96 40.36V39.36C251.96 37.47 251.53 36.22 250.67 35.6C249.536 34.9069 248.216 34.582 246.89 34.67C242.99 34.67 240.817 36.2333 240.37 39.36L224.97 37.92C227.17 28.9333 234.66 24.4367 247.44 24.43C250.655 24.3914 253.863 24.727 257 25.43C259.522 25.9399 261.885 27.0476 263.89 28.66C265.411 29.8918 266.586 31.4975 267.3 33.32C267.88 34.95 268.16 38.1 268.16 42.75V60C268.086 62.8316 268.523 65.6533 269.45 68.33ZM251.93 48.19C244.74 48.96 241.15 51.25 241.15 55.09C241.15 57.6767 242.573 58.9733 245.42 58.98C247.092 59.0177 248.72 58.4454 250 57.37C251.273 56.3033 251.907 53.9367 251.9 50.27L251.93 48.19Z" fill="#F24333"/>
<path d="M293.05 68.33H276.89V25.33H290.94V34.21C292.54 27.75 296.277 24.52 302.15 24.52C302.74 24.52 303.56 24.58 304.6 24.69V39.69C303.563 39.4286 302.499 39.2877 301.43 39.27C295.837 39.27 293.043 42.3867 293.05 48.62V68.33Z" fill="#F24333"/>
<path d="M354.39 25.31L341.39 40.09L355.87 68.33H338.42L330.35 51.1L325.75 56.49V68.33H309.93V10.59H325.75V33.89C325.75 34.5567 325.71 37.1533 325.63 41.68C326.586 40.3103 327.618 38.995 328.72 37.74L339.51 25.31H354.39Z" fill="#F24333"/>
<path d="M386.84 52.89L402.58 54C401.572 58.3396 399.042 62.1745 395.45 64.81C391.63 67.7767 386.46 69.2633 379.94 69.27C372.693 69.27 366.913 67.1767 362.6 62.99C360.494 60.9864 358.83 58.5643 357.716 55.8794C356.602 53.1945 356.061 50.3061 356.13 47.4C356.06 44.3973 356.588 41.4106 357.683 38.6138C358.778 35.8171 360.419 33.2663 362.51 31.11C366.77 26.6833 372.453 24.47 379.56 24.47C386.44 24.47 392.003 26.5567 396.25 30.73C400.497 34.9033 402.62 40.57 402.62 47.73C402.62 48.32 402.62 49.14 402.62 50.18H373.77C373.823 52.8933 374.303 54.8933 375.21 56.18C376.117 57.4667 377.837 58.1333 380.37 58.18C384.03 58.18 386.187 56.4167 386.84 52.89ZM385.7 41.72C385.7 38.82 385.09 36.86 383.95 35.86C382.775 34.8461 381.261 34.3107 379.71 34.36C375.71 34.36 373.71 36.8133 373.71 41.72H385.7Z" fill="#F24333"/>
<path d="M435.78 25.31V36.31H427.2V52.13C427.2 54.3 427.6 55.59 428.42 56C429.207 56.4 430.077 56.609 430.96 56.61C432.59 56.57 434.209 56.3282 435.78 55.89V67.89C432.55 68.5394 429.265 68.8743 425.97 68.89C420.777 68.89 416.963 67.7767 414.53 65.55C412.097 63.3233 410.877 59.77 410.87 54.89V49.89V36.26H404.44V25.31H410.87L411.12 11.31L427.12 11.05V25.31H435.78Z" fill="#F24333"/>
<path d="M208.71 78.75L198.24 118.24H188.05L182.53 96.46L177.31 118.24H166.69L156.19 78.75H167.6L173.13 101.48L178.52 78.75H188L193.86 101.52L199.39 78.75H208.71Z" fill="#2D2C3A"/>
<path d="M240.11 118.24H229.11C228.832 116.888 228.697 115.51 228.71 114.13C226.617 117.283 223.46 118.857 219.24 118.85C215.773 118.85 213.177 117.963 211.45 116.19C210.631 115.397 209.98 114.447 209.535 113.398C209.09 112.348 208.86 111.22 208.86 110.08C208.854 108.565 209.241 107.074 209.984 105.754C210.728 104.434 211.801 103.33 213.1 102.55C215.92 100.63 220.92 99.4767 228.1 99.09V98.42C228.165 97.9518 228.118 97.475 227.963 97.0284C227.808 96.5817 227.55 96.178 227.21 95.85C226.438 95.3714 225.536 95.1476 224.63 95.21C221.96 95.21 220.48 96.28 220.17 98.42L209.64 97.42C211.14 91.2733 216.26 88.1967 225 88.19C227.2 88.1729 229.395 88.4112 231.54 88.9C233.268 89.2479 234.886 90.0059 236.26 91.11C237.295 91.9536 238.098 93.0484 238.59 94.29C239.089 96.4049 239.288 98.5796 239.18 100.75V112.49C239.14 114.447 239.455 116.395 240.11 118.24ZM228.11 104.47C223.19 104.99 220.73 106.563 220.73 109.19C220.73 110.96 221.73 111.85 223.65 111.85C224.802 111.879 225.925 111.488 226.81 110.75C227.67 110.02 228.11 108.4 228.11 105.89V104.47Z" fill="#2D2C3A"/>
<path d="M263.37 88.82V96.31H257.5V107.16C257.5 108.65 257.78 109.53 258.34 109.81C258.875 110.085 259.468 110.229 260.07 110.23C261.186 110.2 262.294 110.036 263.37 109.74V118C261.161 118.442 258.913 118.666 256.66 118.67C253.107 118.67 250.497 117.907 248.83 116.38C247.163 114.853 246.33 112.423 246.33 109.09V105.65V96.31H242V88.82H246.4L246.57 79.24L257.57 79.07V88.82H263.37Z" fill="#2D2C3A"/>
<path d="M285 106.38L294.83 107.22C294.472 110.453 292.934 113.441 290.51 115.61C288.09 117.77 284.873 118.85 280.86 118.85C278.849 118.947 276.839 118.622 274.96 117.899C273.081 117.175 271.374 116.067 269.947 114.646C268.521 113.225 267.406 111.522 266.675 109.646C265.943 107.77 265.611 105.762 265.7 103.75C265.627 101.706 265.958 99.6678 266.675 97.7525C267.393 95.8372 268.482 94.0827 269.88 92.59C271.28 91.1369 272.971 89.9957 274.843 89.241C276.714 88.4862 278.724 88.1349 280.74 88.21C284.265 88.0553 287.719 89.2374 290.41 91.52C292.861 93.6591 294.394 96.6602 294.69 99.9L284.59 100.74C284.17 97.6267 282.993 96.0733 281.06 96.08C280.492 96.0568 279.93 96.2057 279.449 96.5073C278.967 96.8089 278.587 97.249 278.36 97.77C277.793 98.9033 277.507 100.867 277.5 103.66C277.397 105.485 277.69 107.31 278.36 109.01C278.618 109.575 279.046 110.046 279.583 110.357C280.12 110.669 280.741 110.806 281.36 110.75C283.35 110.75 284.57 109.29 285 106.38Z" fill="#2D2C3A"/>
<path d="M327.84 118.24H316.29V100.54C316.382 99.3971 316.2 98.2487 315.76 97.19C315.531 96.866 315.219 96.6102 314.856 96.4499C314.493 96.2896 314.094 96.2309 313.7 96.28C312.952 96.2701 312.223 96.5211 311.64 96.99C311.147 97.346 310.794 97.8621 310.64 98.45C310.519 99.4987 310.472 100.555 310.5 101.61V118.24H298.93V78.75H310.48V92.29C311.407 90.9986 312.634 89.9522 314.056 89.2414C315.477 88.5305 317.051 88.1765 318.64 88.21C320.176 88.1775 321.701 88.4777 323.11 89.09C324.285 89.5822 325.317 90.3629 326.11 91.36C326.743 92.1614 327.221 93.0736 327.52 94.05C327.824 95.6983 327.945 97.3752 327.88 99.05L327.84 118.24Z" fill="#2D2C3A"/>
<path d="M362.68 118.24H351.86V114.34C350.247 117.347 347.603 118.85 343.93 118.85C342.334 118.891 340.751 118.549 339.314 117.854C337.877 117.158 336.627 116.128 335.67 114.85C333.55 112.183 332.493 108.33 332.5 103.29C332.5 98.57 333.56 94.82 335.68 92.04C336.639 90.7134 337.907 89.6405 339.374 88.9139C340.841 88.1874 342.463 87.8291 344.1 87.87C345.476 87.8426 346.839 88.128 348.088 88.7049C349.337 89.2818 350.439 90.135 351.31 91.2V78.75H362.68V118.24ZM351.31 99.32C351.31 96.6533 350.22 95.32 348.04 95.32C347.322 95.3104 346.625 95.5583 346.075 96.0188C345.524 96.4794 345.157 97.122 345.04 97.83C344.528 99.8456 344.289 101.921 344.33 104C344.33 108.76 345.547 111.14 347.98 111.14C348.432 111.143 348.88 111.044 349.288 110.85C349.697 110.656 350.057 110.373 350.34 110.02C351.068 109.023 351.422 107.802 351.34 106.57L351.31 99.32Z" fill="#2D2C3A"/>
<path d="M383.13 118.85C378.25 118.85 374.373 117.33 371.5 114.29C370.114 112.879 369.021 111.208 368.281 109.374C367.542 107.54 367.171 105.578 367.19 103.6C367.135 101.554 367.507 99.5199 368.281 97.626C369.056 95.7321 370.217 94.0204 371.69 92.6C373.245 91.1189 375.082 89.9661 377.093 89.2102C379.103 88.4542 381.244 88.1107 383.39 88.2C388.243 88.2 392.137 89.6467 395.07 92.54C396.517 93.9507 397.655 95.6457 398.414 97.5183C399.173 99.3908 399.536 101.4 399.48 103.42C399.532 105.462 399.162 107.494 398.393 109.387C397.624 111.279 396.472 112.993 395.01 114.42C392.03 117.373 388.07 118.85 383.13 118.85ZM383.31 111.85C384.112 111.903 384.904 111.641 385.516 111.12C386.128 110.599 386.514 109.86 386.59 109.06C386.996 107.143 387.197 105.189 387.19 103.23C387.313 101.194 387.027 99.154 386.35 97.23C386.106 96.6483 385.685 96.1583 385.146 95.8298C384.607 95.5012 383.979 95.3509 383.35 95.4C382.729 95.3813 382.117 95.5508 381.594 95.8863C381.071 96.2219 380.662 96.7077 380.42 97.28C379.687 99.2605 379.373 101.372 379.5 103.48C379.5 106.853 379.817 109.083 380.45 110.17C380.721 110.691 381.132 111.124 381.638 111.422C382.144 111.719 382.724 111.867 383.31 111.85Z" fill="#2D2C3A"/>
<path d="M434.64 82.13L434.35 90.03H433.8C432.8 89.97 432.02 89.95 431.57 89.95C429.78 89.95 428.7 90.3 428.33 91.02C429.35 91.7833 430.18 92.7732 430.752 93.9116C431.325 95.0499 431.625 96.3057 431.63 97.58C431.699 98.928 431.404 100.27 430.776 101.464C430.148 102.659 429.21 103.663 428.06 104.37C425.67 105.88 422.44 106.64 418.35 106.64L416.84 106.58H415.51C413.64 106.58 412.71 107.06 412.71 108.02C412.71 108.98 413.54 109.32 415.19 109.38L424.66 109.79C428.11 109.94 430.66 110.91 432.25 112.68C433.824 114.367 434.69 116.593 434.67 118.9C434.686 120.258 434.365 121.598 433.737 122.802C433.109 124.006 432.193 125.036 431.07 125.8C428.663 127.593 423.997 128.487 417.07 128.48C406.357 128.427 401 125.933 401 121C401 118.333 402.417 116.463 405.25 115.39C404.442 114.916 403.767 114.246 403.287 113.442C402.806 112.638 402.535 111.726 402.5 110.79C402.5 107.89 404.38 105.71 408.14 104.25C405 102.883 403.43 100.607 403.43 97.42C403.397 96.0479 403.735 94.6924 404.407 93.4958C405.079 92.2992 406.061 91.3058 407.25 90.62C409.79 89 413.25 88.19 417.72 88.19C419.581 88.1695 421.438 88.3743 423.25 88.8C423.917 84.1933 426.357 81.8867 430.57 81.88C431.52 81.9 432.88 82 434.64 82.13ZM414.79 117.86C414.37 117.86 413.94 117.86 413.52 117.86C411.52 117.86 410.52 118.48 410.52 119.72C410.52 120.96 411.27 121.59 412.79 121.92C414.788 122.291 416.819 122.455 418.85 122.41C421.24 122.41 422.78 122.21 423.46 121.8C423.765 121.642 424.021 121.402 424.197 121.107C424.374 120.812 424.465 120.474 424.46 120.13C424.475 119.666 424.31 119.215 424 118.87C423.358 118.422 422.58 118.214 421.8 118.28L414.79 117.86ZM417.74 101.14C419.98 101.14 421.1 99.96 421.1 97.58C421.1 95.2 419.95 93.94 417.65 93.94C415.35 93.94 414.24 95.17 414.24 97.64C414.24 100.11 415.41 101.14 417.74 101.14Z" fill="#2D2C3A"/>
<path d="M128 30.19L120.67 36.19C120.705 36.2334 120.735 36.2803 120.76 36.33C121.57 38.01 124.51 78.82 124.51 78.82L120.74 109.93L109 103.27L91.89 116.68L89.61 118.47L84.06 122.82L64.69 128.4L45.33 122.82L39.73 118.44L37.37 116.58L20.37 103.27L8.59998 109.92L4.86998 78.81C4.86998 78.81 7.75998 38.65 8.59998 36.37L1.05998 30.19C1.05998 30.19 -1.32002 9.33 1.05998 7.75C3.43998 6.17 24.79 0 24.79 0L18.69 13.7L23.51 20.7L50.4 16.19H78.94L105.55 20.61L110.33 13.7L104.23 0C104.23 0 125.59 6.15 128 7.75C130.41 9.35 128 30.19 128 30.19Z" fill="#2D2C3A"/>
<path d="M39.82 53.53C42.63 52.99 52.82 60.24 52.82 60.24L58.42 70.14L34.23 62.52L27.6 51.66L39.82 53.53Z" fill="#F24333"/>
<path d="M89.2 53.53C86.39 52.99 76.26 60.24 76.26 60.24L70.65 70.14L94.79 62.52L101.43 51.66L89.2 53.53Z" fill="#F24333"/>
<path d="M79.98 85.09L64.51 94.06L49.04 85.09L56.34 76.89H72.69L79.98 85.09Z" fill="white"/>
</g>
<defs>
<clipPath id="clip0_38_117">
<rect width="435.78" height="128.4" fill="white"/>
</clipPath>
</defs>
</svg>
