<svg width="12" height="13" viewBox="0 0 12 13" fill="none" xmlns="http://www.w3.org/2000/svg">
<g id="block">
<mask id="mask0_64_2458" style="mask-type:alpha" maskUnits="userSpaceOnUse" x="0" y="0" width="12" height="13">
<rect id="Bounding box" y="0.5" width="12" height="12" fill="#D9D9D9"/>
</mask>
<g mask="url(#mask0_64_2458)">
<path id="block_2" d="M6 11.5C5.30833 11.5 4.65833 11.3687 4.05 11.1062C3.44167 10.8438 2.9125 10.4875 2.4625 10.0375C2.0125 9.5875 1.65625 9.05833 1.39375 8.45C1.13125 7.84167 1 7.19167 1 6.5C1 5.80833 1.13125 5.15833 1.39375 4.55C1.65625 3.94167 2.0125 3.4125 2.4625 2.9625C2.9125 2.5125 3.44167 2.15625 4.05 1.89375C4.65833 1.63125 5.30833 1.5 6 1.5C6.69167 1.5 7.34167 1.63125 7.95 1.89375C8.55833 2.15625 9.0875 2.5125 9.5375 2.9625C9.9875 3.4125 10.3438 3.94167 10.6062 4.55C10.8687 5.15833 11 5.80833 11 6.5C11 7.19167 10.8687 7.84167 10.6062 8.45C10.3438 9.05833 9.9875 9.5875 9.5375 10.0375C9.0875 10.4875 8.55833 10.8438 7.95 11.1062C7.34167 11.3687 6.69167 11.5 6 11.5ZM6 10.5C6.45 10.5 6.88333 10.4271 7.3 10.2812C7.71667 10.1354 8.1 9.925 8.45 9.65L2.85 4.05C2.575 4.4 2.36458 4.78333 2.21875 5.2C2.07292 5.61667 2 6.05 2 6.5C2 7.61667 2.3875 8.5625 3.1625 9.3375C3.9375 10.1125 4.88333 10.5 6 10.5ZM9.15 8.95C9.425 8.6 9.63542 8.21667 9.78125 7.8C9.92708 7.38333 10 6.95 10 6.5C10 5.38333 9.6125 4.4375 8.8375 3.6625C8.0625 2.8875 7.11667 2.5 6 2.5C5.55 2.5 5.11667 2.57292 4.7 2.71875C4.28333 2.86458 3.9 3.075 3.55 3.35L9.15 8.95Z" fill="#2D2C3A"/>
</g>
</g>
</svg>
