<svg width="19" height="19" viewBox="0 0 19 19" fill="none" xmlns="http://www.w3.org/2000/svg">
<g id="favorite">
<mask id="mask0_44_361" style="mask-type:alpha" maskUnits="userSpaceOnUse" x="0" y="0" width="19" height="19">
<rect id="Bounding box" x="0.5" y="0.5" width="18" height="18" fill="#D9D9D9"/>
</mask>
<g mask="url(#mask0_44_361)">
<path id="favorite_2" d="M9.5 15.7438C9.325 15.7438 9.14688 15.7125 8.96563 15.65C8.78438 15.5875 8.625 15.4875 8.4875 15.35L7.19375 14.1688C5.86875 12.9563 4.67188 11.7531 3.60313 10.5594C2.53437 9.36564 2 8.05002 2 6.61252C2 5.43752 2.39375 4.45627 3.18125 3.66877C3.96875 2.88127 4.95 2.48752 6.125 2.48752C6.7875 2.48752 7.4125 2.62814 8 2.90939C8.5875 3.19064 9.0875 3.57502 9.5 4.06252C9.9125 3.57502 10.4125 3.19064 11 2.90939C11.5875 2.62814 12.2125 2.48752 12.875 2.48752C14.05 2.48752 15.0313 2.88127 15.8188 3.66877C16.6063 4.45627 17 5.43752 17 6.61252C17 8.05002 16.4688 9.36877 15.4062 10.5688C14.3438 11.7688 13.1375 12.975 11.7875 14.1875L10.5125 15.35C10.375 15.4875 10.2156 15.5875 10.0344 15.65C9.85313 15.7125 9.675 15.7438 9.5 15.7438ZM8.7875 5.56252C8.425 5.05002 8.0375 4.65939 7.625 4.39064C7.2125 4.12189 6.7125 3.98752 6.125 3.98752C5.375 3.98752 4.75 4.23752 4.25 4.73752C3.75 5.23752 3.5 5.86252 3.5 6.61252C3.5 7.26252 3.73125 7.95314 4.19375 8.68439C4.65625 9.41564 5.20938 10.125 5.85313 10.8125C6.49688 11.5 7.15938 12.1438 7.84062 12.7438C8.52187 13.3438 9.075 13.8375 9.5 14.225C9.925 13.8375 10.4781 13.3438 11.1594 12.7438C11.8406 12.1438 12.5031 11.5 13.1469 10.8125C13.7906 10.125 14.3438 9.41564 14.8063 8.68439C15.2688 7.95314 15.5 7.26252 15.5 6.61252C15.5 5.86252 15.25 5.23752 14.75 4.73752C14.25 4.23752 13.625 3.98752 12.875 3.98752C12.2875 3.98752 11.7875 4.12189 11.375 4.39064C10.9625 4.65939 10.575 5.05002 10.2125 5.56252C10.125 5.68752 10.0188 5.78127 9.89375 5.84377C9.76875 5.90627 9.6375 5.93752 9.5 5.93752C9.3625 5.93752 9.23125 5.90627 9.10625 5.84377C8.98125 5.78127 8.875 5.68752 8.7875 5.56252Z" fill="#2D2C3A"/>
</g>
</g>
</svg>
