<svg width="20" height="20" viewBox="0 0 20 20" fill="none" xmlns="http://www.w3.org/2000/svg">
<path d="M2 6C2 5.44772 2.44772 5 3 5H17C17.5523 5 18 5.44772 18 6C18 6.55228 17.5523 7 17 7H3C2.44772 7 2 6.55228 2 6Z" fill="#2D2C3A"/>
<path d="M2 10C2 9.44772 2.44772 9 3 9H17C17.5523 9 18 9.44772 18 10C18 10.5523 17.5523 11 17 11H3C2.44772 11 2 10.5523 2 10Z" fill="#2D2C3A"/>
<path d="M2 14C2 13.4477 2.44772 13 3 13H17C17.5523 13 18 13.4477 18 14C18 14.5523 17.5523 15 17 15H3C2.44772 15 2 14.5523 2 14Z" fill="#2D2C3A"/>
</svg>
