<svg width="16" height="16" viewBox="0 0 16 16" fill="none" xmlns="http://www.w3.org/2000/svg">
<g id="moving">
<mask id="mask0_44_742" style="mask-type:alpha" maskUnits="userSpaceOnUse" x="0" y="0" width="16" height="16">
<rect id="Bounding box" width="16" height="16" fill="#D9D9D9"/>
</mask>
<g mask="url(#mask0_44_742)">
<path id="moving_2" d="M2.26671 12L1.33337 11.0667L4.86671 7.53333C5.2556 7.14444 5.72782 6.95 6.28337 6.95C6.83893 6.95 7.31115 7.14444 7.70004 7.53333L8.46671 8.3C8.60004 8.43333 8.75837 8.5 8.94171 8.5C9.12504 8.5 9.28337 8.43333 9.41671 8.3L12.3834 5.33333H10.6667V4H14.6667V8H13.3334V6.28333L10.35 9.25C9.96115 9.63889 9.48893 9.83333 8.93337 9.83333C8.37782 9.83333 7.9056 9.63889 7.51671 9.25L6.73337 8.46667C6.61115 8.34444 6.4556 8.28333 6.26671 8.28333C6.07782 8.28333 5.92226 8.34444 5.80004 8.46667L2.26671 12Z" fill="#2D2C3A"/>
</g>
</g>
</svg>
