<svg width="16" height="16" viewBox="0 0 16 16" fill="none" xmlns="http://www.w3.org/2000/svg">
<g id="sell">
<mask id="mask0_44_703" style="mask-type:alpha" maskUnits="userSpaceOnUse" x="0" y="0" width="16" height="16">
<rect id="Bounding box" width="16" height="16" fill="#D9D9D9"/>
</mask>
<g mask="url(#mask0_44_703)">
<path id="sell_2" d="M9.50004 14.2667C9.24449 14.5222 8.92782 14.65 8.55004 14.65C8.17226 14.65 7.8556 14.5222 7.60004 14.2667L1.73337 8.4C1.61115 8.27778 1.51393 8.13333 1.44171 7.96667C1.36949 7.8 1.33337 7.62222 1.33337 7.43333V2.66667C1.33337 2.3 1.46393 1.98611 1.72504 1.725C1.98615 1.46389 2.30004 1.33333 2.66671 1.33333H7.43337C7.62226 1.33333 7.80004 1.36945 7.96671 1.44167C8.13337 1.51389 8.27782 1.61111 8.40004 1.73333L14.2667 7.61667C14.5223 7.87222 14.65 8.18611 14.65 8.55833C14.65 8.93056 14.5223 9.24445 14.2667 9.5L9.50004 14.2667ZM8.55004 13.3333L13.3167 8.56667L7.43337 2.66667H2.66671V7.43333L8.55004 13.3333ZM4.33337 5.33333C4.61115 5.33333 4.84726 5.23611 5.04171 5.04167C5.23615 4.84722 5.33337 4.61111 5.33337 4.33333C5.33337 4.05556 5.23615 3.81945 5.04171 3.625C4.84726 3.43056 4.61115 3.33333 4.33337 3.33333C4.0556 3.33333 3.81949 3.43056 3.62504 3.625C3.4306 3.81945 3.33337 4.05556 3.33337 4.33333C3.33337 4.61111 3.4306 4.84722 3.62504 5.04167C3.81949 5.23611 4.0556 5.33333 4.33337 5.33333Z" fill="#2D2C3A"/>
</g>
</g>
</svg>
