<svg width="42" height="25" viewBox="0 0 42 25" fill="none" xmlns="http://www.w3.org/2000/svg">
<g id="Group">
<path id="rect19" d="M26.5743 2.67383H15.2476V22.3259H26.5743V2.67383Z" fill="#FF5A00"/>
<path id="XMLID_330_" d="M16.0016 12.5C16.0016 8.50728 17.9452 4.96359 20.9277 2.67395C18.7327 1.00728 15.9639 0 12.9437 0C5.78905 0 0 5.59061 0 12.5C0 19.4094 5.78905 25 12.9437 25C15.9639 25 18.7327 23.9927 20.9277 22.3261C17.941 20.0688 16.0016 16.4927 16.0016 12.5Z" fill="#EB001B"/>
<path id="path22" d="M41.8555 12.5C41.8555 19.4094 36.0664 25 28.9118 25C25.8916 25 23.1227 23.9927 20.9277 22.3261C23.9479 20.0324 25.8539 16.4927 25.8539 12.5C25.8539 8.50728 23.9102 4.96359 20.9277 2.67395C23.1185 1.00728 25.8874 0 28.9076 0C36.0664 0 41.8555 5.62702 41.8555 12.5Z" fill="#F79E1B"/>
</g>
</svg>
