<svg width="67" height="34" viewBox="0 0 67 34" fill="none" xmlns="http://www.w3.org/2000/svg">
<path d="M57.9353 9.70516V18.0176H54.9985V12.1866H52.1708V18.0176H49.234V9.70459H57.9353V9.70516Z" fill="#121212"/>
<path fill-rule="evenodd" clip-rule="evenodd" d="M43.2025 18.3148C45.8315 18.3148 47.7838 16.6856 47.7838 14.2158C47.7838 11.8253 46.3434 10.2732 43.9362 10.2732C42.8252 10.2732 41.9085 10.6685 41.218 11.3505C41.3829 9.94089 42.5622 8.91182 43.8608 8.91182C44.1604 8.91182 46.4166 8.907 46.4166 8.907L47.6924 6.43945C47.6924 6.43945 44.8599 6.50462 43.5431 6.50462C40.5346 6.5576 38.5024 9.32152 38.5024 12.6785C38.5024 16.5893 40.4844 18.3148 43.2025 18.3148ZM43.2185 12.4589C44.1946 12.4589 44.8714 13.1071 44.8714 14.2155C44.8714 15.2132 44.27 16.0351 43.2185 16.0374C42.2127 16.0374 41.5359 15.2758 41.5359 14.2325C41.5359 13.1239 42.2127 12.4589 43.2185 12.4589Z" fill="#121212"/>
<path d="M36.112 15.2348C36.112 15.2348 35.4185 15.6388 34.3826 15.7153C33.1918 15.751 32.1307 14.9908 32.1307 13.6402C32.1307 12.3227 33.067 11.5676 34.3526 11.5676C35.1409 11.5676 36.1838 12.1198 36.1838 12.1198C36.1838 12.1198 36.9469 10.7046 37.3421 9.99681C36.6183 9.44232 35.6542 9.13831 34.5329 9.13831C31.7029 9.13831 29.511 11.0032 29.511 13.6235C29.511 16.2772 31.5712 18.0987 34.5329 18.0438C35.3607 18.0126 36.5028 17.7188 37.1989 17.2669L36.112 15.2348Z" fill="#121212"/>
<path d="M0 7.40063L4.07382 14.7602V19.2494L0.00476569 26.5945L0 7.40063Z" fill="#5B57A2"/>
<path d="M15.6418 12.0822L19.4592 9.71745L27.2715 9.71008L15.6418 16.9107V12.0822Z" fill="#D90751"/>
<path d="M15.6202 7.35732L15.6418 17.1012L11.5585 14.5653V0L15.6202 7.35732Z" fill="#FAB718"/>
<path d="M27.2715 9.71012L19.4589 9.71748L15.6202 7.35732L11.5585 0L27.2715 9.71012Z" fill="#ED6F26"/>
<path d="M15.6418 26.6354V21.908L11.5585 19.4203L11.5607 34.0001L15.6418 26.6354Z" fill="#63B22F"/>
<path d="M19.4496 24.2921L4.07354 14.7602L0 7.40063L27.255 24.2825L19.4496 24.2921Z" fill="#1487C9"/>
<path d="M11.561 34L15.6415 26.6353L19.4493 24.2921L27.2547 24.2825L11.561 34Z" fill="#017F36"/>
<path d="M0.00482178 26.5945L11.5919 19.4205L7.69637 17.0048L4.07388 19.2493L0.00482178 26.5945Z" fill="#984995"/>
<path d="M32.1316 23.6121C32.0419 23.7277 31.9239 23.815 31.7823 23.8739C31.6371 23.9337 31.4816 23.9641 31.3248 23.9634C31.1688 23.9656 31.0138 23.9393 30.867 23.8858C30.7352 23.8374 30.6148 23.762 30.5132 23.6642C30.413 23.5663 30.3343 23.4482 30.2822 23.3174C30.2259 23.1742 30.1978 23.0213 30.1995 22.8672C30.1995 22.7142 30.2256 22.5726 30.2797 22.4383C30.3316 22.3037 30.407 22.1884 30.5015 22.0915C30.5959 21.9926 30.7092 21.9172 30.8365 21.8583C30.9663 21.8016 31.1078 21.771 31.2634 21.771C31.431 21.771 31.5866 21.7923 31.7282 21.8345C31.8698 21.877 31.99 21.9478 32.089 22.047L31.9169 22.3416C31.8336 22.2654 31.7356 22.2075 31.629 22.1716C31.5276 22.1386 31.4217 22.122 31.3153 22.1223C31.2211 22.1223 31.1314 22.141 31.0442 22.1765C30.9583 22.2114 30.8798 22.2627 30.8129 22.3275C30.7446 22.3941 30.6907 22.4744 30.6548 22.5632C30.6147 22.655 30.5959 22.7564 30.5959 22.8695C30.5959 22.9851 30.617 23.0888 30.657 23.1783C30.6974 23.2704 30.7515 23.3483 30.8199 23.4141C30.8883 23.4804 30.9685 23.5297 31.0604 23.5628C31.1527 23.5982 31.2494 23.6147 31.3531 23.6147C31.4804 23.6147 31.5962 23.5886 31.6951 23.539C31.7932 23.4911 31.8813 23.4248 31.9547 23.3435L32.1316 23.6121ZM32.6174 23.9139V21.8158H32.9903V23.3789L34.2027 21.8158H34.5756V23.9141H34.2027V22.351L32.9903 23.9141L32.6174 23.9139ZM37.0453 23.6121C36.9536 23.7287 36.8333 23.8189 36.6963 23.8739C36.5509 23.9336 36.3954 23.9641 36.2385 23.9634C36.0826 23.9655 35.9276 23.9392 35.781 23.8858C35.6491 23.8374 35.5286 23.762 35.4269 23.6642C35.3267 23.5663 35.248 23.4482 35.1959 23.3174C35.1396 23.1742 35.1115 23.0213 35.1132 22.8672C35.1132 22.7142 35.1393 22.5726 35.1934 22.4383C35.2456 22.3037 35.321 22.1884 35.4152 22.0915C35.5096 21.9926 35.6229 21.9172 35.7502 21.8583C35.8846 21.7984 36.0302 21.7687 36.1771 21.771C36.3448 21.771 36.5003 21.7923 36.6419 21.8345C36.7835 21.877 36.9037 21.9478 37.003 22.047L36.8306 22.3416C36.7475 22.2653 36.6495 22.2074 36.5429 22.1716C36.4416 22.1387 36.3357 22.122 36.2293 22.1223C36.0419 22.1229 35.8619 22.1964 35.7266 22.3275C35.6589 22.3946 35.6051 22.4747 35.5685 22.5632C35.5284 22.655 35.5096 22.7564 35.5096 22.8695C35.5096 22.9851 35.5309 23.0888 35.571 23.1783C35.6111 23.2704 35.6652 23.3483 35.7336 23.4141C35.802 23.4804 35.8825 23.5297 35.9744 23.5628C36.0664 23.5957 36.1631 23.6147 36.2668 23.6147C36.3944 23.6147 36.5076 23.5886 36.6088 23.539C36.7069 23.4911 36.795 23.4248 36.8684 23.3435L37.0453 23.6121ZM37.2365 21.8158H39.1495V22.1884H38.3805V23.9139H38.0077V22.1884H37.2387V21.8158H37.2365Z" fill="#121212"/>
<path fill-rule="evenodd" clip-rule="evenodd" d="M40.8906 23.8928C41.0322 23.8481 41.1525 23.7795 41.2562 23.6854L41.143 23.393C41.0746 23.4545 40.9826 23.5064 40.8719 23.5489C40.7609 23.5914 40.6358 23.6123 40.499 23.6123C40.2938 23.6123 40.1239 23.5582 39.9894 23.4474C39.8551 23.3364 39.7819 23.1811 39.7654 22.9828H41.379C41.3955 22.9097 41.4025 22.8272 41.4025 22.7306C41.4025 22.5867 41.3765 22.4572 41.3246 22.3393C41.2763 22.2249 41.2058 22.1214 41.1172 22.035C41.0273 21.9495 40.9214 21.883 40.8057 21.8395C40.6846 21.792 40.5558 21.768 40.4259 21.7687C40.2512 21.7687 40.0979 21.7993 39.9636 21.856C39.8366 21.9099 39.7218 21.9894 39.6261 22.0894C39.5331 22.189 39.4617 22.307 39.4164 22.4359C39.3665 22.5733 39.3417 22.7186 39.3432 22.8649C39.3432 23.0301 39.3715 23.1808 39.4234 23.3154C39.4738 23.4458 39.551 23.5639 39.6499 23.6619C39.7466 23.7583 39.8643 23.8316 40.0037 23.8835C40.1528 23.937 40.3102 23.9632 40.4685 23.9611C40.6118 23.9602 40.7541 23.937 40.8906 23.8928ZM39.947 22.2778C40.0625 22.1719 40.2159 22.12 40.4093 22.12C40.591 22.12 40.7373 22.1696 40.8436 22.2688C40.9498 22.3677 41.0061 22.5045 41.0157 22.6788H39.7418C39.7599 22.5245 39.8328 22.3818 39.947 22.2778Z" fill="#121212"/>
<path d="M41.9097 21.8157H42.2494L43.0562 22.8555L43.8204 21.8157H44.1507V23.914H43.7781V22.384L43.0515 23.3576H43.0372L42.2825 22.3838V23.9138H41.9097V21.8157Z" fill="#121212"/>
<path fill-rule="evenodd" clip-rule="evenodd" d="M45.1649 21.8229C45.0518 21.8527 44.9437 21.8995 44.8442 21.9617L44.9432 22.2592C45.0281 22.2167 45.113 22.1813 45.198 22.1507C45.2829 22.1198 45.3914 22.1056 45.5212 22.1056C45.6249 22.1056 45.7076 22.1223 45.7713 22.1552C45.8349 22.1858 45.882 22.2331 45.9151 22.2898C45.9482 22.3465 45.9695 22.417 45.9812 22.4995C45.993 22.5819 45.9978 22.6714 45.9978 22.7683C45.9215 22.7146 45.8345 22.6783 45.7429 22.6621C45.6544 22.6443 45.5644 22.6348 45.4741 22.6338C45.3631 22.6338 45.2594 22.6505 45.1601 22.6785C45.0612 22.7069 44.9762 22.7494 44.9078 22.806C44.838 22.8626 44.7816 22.9342 44.7427 23.0157C44.7012 23.1049 44.6802 23.2024 44.6813 23.301C44.6813 23.5061 44.7405 23.6665 44.8582 23.7798C44.9762 23.8929 45.1318 23.9493 45.3252 23.9493C45.4999 23.9493 45.6392 23.9187 45.7452 23.8575C45.8514 23.796 45.9364 23.7254 45.9978 23.6453V23.9164H46.3468V22.6292C46.3468 22.3555 46.2879 22.1436 46.1677 21.9948C46.0496 21.8464 45.8397 21.771 45.5425 21.771C45.4102 21.771 45.2852 21.7897 45.1649 21.8229ZM45.7881 23.5229C45.7031 23.5841 45.5921 23.6121 45.4553 23.6121C45.3351 23.6121 45.2406 23.5815 45.1747 23.5226C45.1085 23.4614 45.0755 23.3812 45.0755 23.282C45.0755 23.2234 45.0872 23.1738 45.1133 23.129C45.1394 23.0843 45.1747 23.0488 45.2148 23.0205C45.2587 22.9909 45.3073 22.9693 45.3586 22.9568C45.413 22.9426 45.4671 22.9355 45.5237 22.9355C45.7079 22.9355 45.8657 22.9803 45.9955 23.0746V23.341C45.9344 23.4102 45.8646 23.4715 45.7881 23.5229ZM49.6379 21.0777C49.7133 21.0426 49.784 20.9836 49.8501 20.8964L49.6472 20.6017C49.5953 20.6725 49.5364 20.7218 49.4703 20.7479C49.4002 20.7756 49.3275 20.7961 49.2533 20.8091L49.1827 20.8218C49.1213 20.8326 49.0554 20.8445 48.9845 20.8564C48.8707 20.8777 48.7599 20.9125 48.6542 20.9601C48.4866 21.0332 48.3523 21.1321 48.2508 21.257C48.1493 21.382 48.0692 21.5234 48.0148 21.6792C47.9597 21.8371 47.9225 22.0008 47.904 22.1671C47.885 22.3371 47.8757 22.4995 47.8757 22.655C47.8757 22.8556 47.9015 23.0369 47.9534 23.1996C48.0055 23.3625 48.0784 23.4991 48.1751 23.6098C48.2718 23.7232 48.3876 23.8082 48.5244 23.8694C48.6612 23.9306 48.8146 23.9612 48.9867 23.9612C49.1448 23.9612 49.2911 23.9306 49.4232 23.8739C49.5505 23.8195 49.6659 23.7402 49.7629 23.6407C49.8571 23.5438 49.9328 23.4282 49.9847 23.2987C50.0388 23.169 50.0649 23.0299 50.0649 22.8837C50.0649 22.7258 50.0413 22.5822 49.9965 22.4547C49.9552 22.3331 49.8893 22.2216 49.803 22.1272C49.7166 22.0343 49.6111 21.9617 49.4938 21.9147C49.3647 21.8633 49.2269 21.8377 49.0882 21.8393C48.9985 21.8393 48.9113 21.8512 48.8263 21.8747C48.7437 21.8982 48.6644 21.9323 48.5903 21.9761C48.5184 22.0178 48.4526 22.0692 48.3946 22.1291C48.338 22.1884 48.2909 22.2544 48.2578 22.3297H48.2483C48.2556 22.2331 48.2674 22.1342 48.2884 22.0328C48.3097 21.9314 48.3402 21.8345 48.3806 21.7427C48.4207 21.6509 48.4726 21.5681 48.5362 21.4928C48.6044 21.4167 48.6881 21.3564 48.7815 21.316C48.8842 21.2665 48.9929 21.2309 49.1047 21.21L49.1787 21.1964C49.2525 21.1828 49.3228 21.1698 49.3901 21.1556C49.4798 21.1369 49.5622 21.1128 49.6379 21.0777ZM48.3262 23.0936C48.2898 22.9746 48.2722 22.8504 48.2744 22.7258C48.2902 22.6543 48.319 22.5864 48.3593 22.5255C48.3994 22.4618 48.4513 22.4054 48.5127 22.3555C48.6512 22.2458 48.8225 22.1869 48.9985 22.1884C49.218 22.1884 49.3831 22.2566 49.4986 22.3912C49.6144 22.5278 49.671 22.6975 49.671 22.9026C49.671 23.0041 49.6519 23.0962 49.6191 23.1809C49.5873 23.2644 49.5391 23.3407 49.4775 23.4051C49.4159 23.4695 49.3421 23.5207 49.2606 23.5557C49.1756 23.5934 49.0834 23.6124 48.9797 23.6124C48.876 23.6124 48.7815 23.5911 48.6943 23.5486C48.6077 23.507 48.5311 23.4466 48.47 23.3718C48.4061 23.2885 48.3574 23.1943 48.3262 23.0936ZM52.924 21.8158H52.5512V23.9141H52.924V21.8158ZM50.6025 21.8158H50.9754V22.4453H51.3199C51.4825 22.4453 51.6146 22.4666 51.7208 22.5065C51.827 22.5468 51.912 22.6009 51.9756 22.6669C52.0393 22.7329 52.0841 22.8108 52.1102 22.8978C52.136 22.9851 52.1503 23.0746 52.1503 23.169C52.1503 23.2633 52.136 23.3531 52.1054 23.4427C52.0771 23.5322 52.0275 23.6098 51.9613 23.6807C51.8955 23.7515 51.8057 23.8082 51.6925 23.8507C51.5792 23.8929 51.4424 23.9164 51.2773 23.9164H50.6003V21.8158H50.6025ZM50.9754 22.7964V23.5651H51.2468C51.4332 23.5651 51.5652 23.5322 51.6406 23.4659C51.7163 23.3999 51.7539 23.3058 51.7539 23.1809C51.7539 23.0534 51.7138 22.957 51.6384 22.8907C51.5605 22.8247 51.4307 22.7916 51.2515 22.7916H50.9754V22.7964Z" fill="#121212"/>
<path d="M55.3893 23.6121C55.2996 23.7277 55.1816 23.815 55.04 23.8739C54.8947 23.9336 54.7393 23.9641 54.5825 23.9634C54.4265 23.9656 54.2714 23.9393 54.1247 23.8858C53.9929 23.8375 53.8724 23.762 53.7709 23.6642C53.6707 23.5663 53.5919 23.4481 53.5396 23.3174C53.4835 23.1742 53.4555 23.0213 53.4572 22.8672C53.4572 22.7142 53.483 22.5726 53.5374 22.4383C53.5893 22.3037 53.6647 22.1884 53.7591 22.0915C53.8536 21.9926 53.9666 21.9172 54.0941 21.8583C54.2286 21.7984 54.3742 21.7686 54.5211 21.771C54.6885 21.771 54.8443 21.7923 54.9859 21.8345C55.1275 21.877 55.2477 21.9478 55.3467 22.047L55.1746 22.3416C55.0913 22.2654 54.9933 22.2075 54.8867 22.1716C54.7853 22.1386 54.6794 22.122 54.573 22.1223C54.4788 22.1223 54.3891 22.141 54.3016 22.1765C54.2158 22.2114 54.1374 22.2627 54.0706 22.3275C54.0028 22.3945 53.949 22.4747 53.9125 22.5632C53.8724 22.655 53.8536 22.7564 53.8536 22.8695C53.8536 22.9851 53.8746 23.0888 53.9147 23.1783C53.9548 23.2704 54.0092 23.3483 54.0776 23.4141C54.146 23.4804 54.2262 23.5297 54.3181 23.5628C54.4104 23.5957 54.5071 23.6147 54.6108 23.6147C54.7381 23.6147 54.8513 23.5886 54.9528 23.539C55.0509 23.4911 55.139 23.4248 55.2124 23.3435L55.3893 23.6121ZM55.5802 21.8158H57.4935V22.1884H56.7242V23.9139H56.3517V22.1884H55.5827V21.8158H55.5802Z" fill="#121212"/>
<path fill-rule="evenodd" clip-rule="evenodd" d="M58.272 21.816H57.8992V24.8477H58.272V23.8175C58.3474 23.8671 58.4371 23.9025 58.5409 23.926C58.6446 23.9495 58.7531 23.9611 58.8641 23.9611C59.0292 23.9611 59.1778 23.9305 59.3123 23.8742C59.4414 23.8184 59.5584 23.7375 59.6566 23.6362C59.7533 23.5344 59.8265 23.4166 59.8783 23.2775C59.9302 23.1386 59.9563 22.9899 59.9563 22.8321C59.9563 22.6762 59.9327 22.5326 59.8879 22.4028C59.8456 22.2796 59.7799 22.1659 59.6944 22.0682C59.6105 21.9729 59.5065 21.8979 59.39 21.8489C59.2627 21.7936 59.1252 21.7663 58.9866 21.7687C58.8405 21.7687 58.7037 21.797 58.5739 21.8537C58.4441 21.9104 58.3427 21.9784 58.272 22.0634V21.816ZM58.5316 22.205C58.6379 22.1484 58.7534 22.12 58.8784 22.12C58.9869 22.12 59.0836 22.1365 59.171 22.1719C59.256 22.2073 59.3266 22.2569 59.3858 22.3229C59.4447 22.3889 59.4895 22.4646 59.5178 22.5538C59.5484 22.6434 59.5627 22.7403 59.5627 22.8462C59.5627 22.9596 59.5436 23.0607 59.5108 23.1551C59.4799 23.2445 59.4308 23.3264 59.3667 23.3956C59.3023 23.4639 59.2244 23.5177 59.138 23.5534C59.0416 23.5942 58.938 23.6143 58.8335 23.6124C58.7323 23.6124 58.6379 23.6007 58.5481 23.5772C58.4499 23.5502 58.3568 23.5071 58.2723 23.4497V22.4099C58.3382 22.33 58.4256 22.2617 58.5316 22.205ZM62.8154 21.8157H62.4426V23.9141H62.8154V21.8157ZM60.4917 21.8157H60.8646V22.4453H61.2088C61.3717 22.4453 61.5037 22.4666 61.61 22.5065C61.7162 22.5467 61.8012 22.6009 61.8648 22.6669C61.9284 22.7329 61.9733 22.8108 61.9991 22.8978C62.0251 22.9851 62.0392 23.0746 62.0392 23.1689C62.0392 23.2633 62.0251 23.3531 61.9946 23.4426C61.9663 23.5322 61.9166 23.6098 61.8505 23.6806C61.7846 23.7515 61.6949 23.8081 61.5816 23.8506C61.4684 23.8929 61.3316 23.9164 61.1665 23.9164H60.4895V21.8157H60.4917ZM60.8671 22.7964V23.565H61.1384C61.3246 23.565 61.4569 23.5322 61.5323 23.4659C61.6077 23.3999 61.6456 23.3058 61.6456 23.1808C61.6456 23.0533 61.6055 22.957 61.5301 22.8907C61.4521 22.8247 61.3223 22.7915 61.1432 22.7915H60.8671V22.7964Z" fill="#121212"/>
<path d="M64.6036 22.8272L65.4009 23.914H64.9434L64.3275 23.0652L63.7023 23.914H63.2684L64.0609 22.8459L63.3155 21.8157H63.7733L64.3418 22.6079L64.9196 21.8157H65.3538L64.6036 22.8272ZM31.8558 26.5074H30.7117V28.2567H30.3389V26.1586H32.2283V28.2567H31.8558V26.5074ZM34.3443 26.5309H33.6084L33.5846 26.8845C33.5588 27.184 33.5235 27.4245 33.4739 27.6081C33.4242 27.7923 33.3628 27.9337 33.2922 28.0326C33.2216 28.1317 33.1389 28.2 33.0444 28.2332C32.9469 28.2689 32.8439 28.2865 32.7402 28.285L32.7119 27.9218C32.752 27.9241 32.7991 27.9147 32.8509 27.8912C32.9031 27.8677 32.955 27.8158 33.0043 27.7382C33.0539 27.6577 33.0988 27.5447 33.1389 27.3985C33.1789 27.25 33.205 27.0568 33.219 26.8137L33.2569 26.1606H34.7171V28.259H34.3443V26.5309Z" fill="#121212"/>
<path fill-rule="evenodd" clip-rule="evenodd" d="M35.7221 26.1634C35.6015 26.1963 35.4931 26.2433 35.4011 26.3023L35.5003 26.5995C35.5853 26.557 35.6702 26.5216 35.7549 26.491C35.8398 26.4604 35.9486 26.4462 36.0781 26.4462C36.1821 26.4462 36.2645 26.4626 36.3282 26.4955C36.3921 26.5264 36.4392 26.5734 36.4723 26.6301C36.5051 26.6867 36.5264 26.7576 36.5381 26.8397C36.5499 26.9225 36.5547 27.012 36.5547 27.1086C36.4784 27.055 36.3914 27.0188 36.2999 27.0027C36.2113 26.9848 36.1213 26.9754 36.031 26.9743C35.9203 26.9743 35.8163 26.9908 35.7173 27.0191C35.6181 27.0474 35.5331 27.0899 35.4647 27.1466C35.3949 27.2032 35.3385 27.2748 35.2996 27.3563C35.2582 27.4455 35.2373 27.543 35.2385 27.6416C35.2385 27.8464 35.2974 28.0071 35.4154 28.1201C35.5331 28.2332 35.689 28.2898 35.8824 28.2898C36.0571 28.2898 36.1961 28.2592 36.3024 28.1978C36.4084 28.1366 36.4933 28.0657 36.5547 27.9855V28.2567H36.904V26.9695C36.904 26.6961 36.8448 26.4839 36.7246 26.3354C36.6066 26.1867 36.3966 26.1116 36.0994 26.1116C35.9719 26.1117 35.845 26.1293 35.7221 26.1634ZM36.3472 27.8629C36.2626 27.9243 36.1516 27.9527 36.0148 27.9527C35.892 27.9527 35.8 27.9221 35.7341 27.8629C35.668 27.8017 35.6349 27.7215 35.6349 27.6226C35.6349 27.5637 35.6467 27.5141 35.6728 27.4693C35.6985 27.4245 35.7341 27.3891 35.7742 27.3608C35.8143 27.3325 35.8637 27.3112 35.918 27.297C35.972 27.283 36.0275 27.2759 36.0832 27.2761C36.2671 27.2761 36.4252 27.3208 36.555 27.4149V27.6812C36.4937 27.7505 36.4239 27.8116 36.3472 27.8629Z" fill="#121212"/>
<path d="M37.2693 26.1587H39.1826V26.531H38.4133V28.2568H38.0408V26.5313H37.2718V26.1587H37.2693Z" fill="#121212"/>
<path fill-rule="evenodd" clip-rule="evenodd" d="M40.9237 28.2355C41.0653 28.1907 41.1855 28.1221 41.2892 28.0281L41.176 27.7357C41.1076 27.7972 41.0156 27.849 40.9046 27.8915C40.7939 27.934 40.6689 27.955 40.5321 27.955C40.3269 27.955 40.157 27.9009 40.0224 27.7901C39.8879 27.6793 39.815 27.5237 39.7984 27.3254H41.412C41.4283 27.2526 41.4356 27.1699 41.4356 27.0732C41.4356 26.9296 41.4095 26.7998 41.3577 26.682C41.3093 26.5675 41.2387 26.4641 41.1499 26.3779C41.0603 26.2922 40.9544 26.2256 40.8388 26.1822C40.7176 26.1347 40.5888 26.1107 40.4589 26.1113C40.2843 26.1113 40.1309 26.1419 39.9966 26.1986C39.8696 26.2524 39.7548 26.3319 39.6591 26.4321C39.5662 26.5316 39.4947 26.6496 39.4491 26.7786C39.3994 26.916 39.3746 27.0613 39.376 27.2075C39.376 27.3727 39.4043 27.5235 39.4561 27.658C39.5083 27.7923 39.5859 27.9079 39.6827 28.0046C39.7794 28.1012 39.8974 28.1743 40.0367 28.2261C40.1858 28.2797 40.3431 28.3061 40.5012 28.304C40.6406 28.304 40.7821 28.2802 40.9237 28.2355ZM39.9778 26.6182C40.0933 26.5122 40.2467 26.4604 40.4401 26.4604C40.6243 26.4604 40.7681 26.5122 40.8744 26.6089C40.9803 26.708 41.0369 26.8446 41.0465 27.0191H39.7726C39.7906 26.8647 39.8636 26.7222 39.9778 26.6182ZM41.6172 26.1586H42.089L42.8084 27.1701L42.0394 28.2567H41.5819L42.3884 27.1699L41.6172 26.1586ZM42.9003 26.1586H43.2732V28.2567H42.9003V26.1586ZM44.6059 28.2567L43.7851 27.1699L44.5518 26.1584H44.0892L43.3651 27.1699L44.1436 28.2567H44.6059ZM46.3092 28.2355C46.4508 28.1907 46.571 28.1221 46.6748 28.0281L46.5615 27.7357C46.4931 27.7972 46.4012 27.849 46.2904 27.8915C46.1794 27.934 46.0544 27.955 45.9176 27.955C45.7124 27.955 45.5425 27.9009 45.4079 27.7901C45.2736 27.6793 45.2005 27.5237 45.1839 27.3254H46.7975C46.8141 27.2526 46.8211 27.1699 46.8211 27.0732C46.8211 26.9296 46.7953 26.7998 46.7432 26.682C46.6949 26.5676 46.6243 26.4642 46.5357 26.3779C46.4459 26.2922 46.34 26.2256 46.2243 26.1822C46.1032 26.1347 45.9743 26.1106 45.8444 26.1113C45.67 26.1113 45.5167 26.1419 45.3821 26.1986C45.2552 26.2525 45.1405 26.3319 45.0449 26.4321C44.9518 26.5315 44.8802 26.6495 44.8349 26.7786C44.7851 26.9159 44.7603 27.0613 44.7618 27.2075C44.7618 27.3727 44.7901 27.5235 44.8419 27.658C44.8938 27.7923 44.9717 27.9079 45.0684 28.0046C45.1652 28.1012 45.2829 28.1743 45.4222 28.2261C45.5714 28.2797 45.7287 28.3061 45.887 28.304C46.0304 28.303 46.1727 28.2798 46.3092 28.2355ZM45.3634 26.6182C45.4791 26.5122 45.6325 26.4604 45.8259 26.4604C46.0076 26.4604 46.1536 26.5122 46.2599 26.6089C46.3661 26.708 46.4227 26.8446 46.432 27.0191H45.1582C45.1761 26.8647 45.2491 26.7222 45.3634 26.6182ZM48.3335 25.4537C48.114 25.4537 47.9937 25.331 47.975 25.0859H47.6234C47.6234 25.18 47.64 25.265 47.6705 25.3452C47.7013 25.4254 47.7462 25.4937 47.8051 25.5503C47.8639 25.607 47.9396 25.6518 48.0268 25.6869C48.114 25.7223 48.2155 25.7387 48.331 25.7387C48.4372 25.7387 48.5317 25.7223 48.6166 25.6869C48.7016 25.654 48.7722 25.607 48.8336 25.5503C48.8925 25.4937 48.9399 25.4254 48.9727 25.3452C49.0057 25.265 49.0223 25.18 49.0223 25.0859H48.6733C48.6567 25.331 48.5409 25.4537 48.3335 25.4537ZM47.326 26.1584V28.2567H47.6988L48.9113 26.6936V28.2567H49.2841V26.1584H48.9113L47.6988 27.7215V26.1584H47.326Z" fill="#121212"/>
</svg>
