<svg width="22" height="22" viewBox="0 0 22 22" fill="none" xmlns="http://www.w3.org/2000/svg">
<g id="add_card">
<mask id="mask0_44_1473" style="mask-type:alpha" maskUnits="userSpaceOnUse" x="0" y="0" width="22" height="22">
<rect id="Bounding box" width="22" height="22" fill="#D9D9D9"/>
</mask>
<g mask="url(#mask0_44_1473)">
<path id="add_card_2" d="M3.66671 18.3334C3.16254 18.3334 2.73094 18.1539 2.37192 17.7949C2.01289 17.4358 1.83337 17.0042 1.83337 16.5001V5.50008C1.83337 4.99591 2.01289 4.56432 2.37192 4.20529C2.73094 3.84626 3.16254 3.66675 3.66671 3.66675H18.3334C18.8375 3.66675 19.2691 3.84626 19.6282 4.20529C19.9872 4.56432 20.1667 4.99591 20.1667 5.50008V11.0001H3.66671V16.5001H12.8334V18.3334H3.66671ZM3.66671 7.33341H18.3334V5.50008H3.66671V7.33341ZM17.4167 20.1667V17.4167H14.6667V15.5834H17.4167V12.8334H19.25V15.5834H22V17.4167H19.25V20.1667H17.4167Z" fill="white"/>
</g>
</g>
</svg>
