<svg width="40" height="40" viewBox="0 0 40 40" fill="none" xmlns="http://www.w3.org/2000/svg">
<g id="all_inclusive">
<mask id="mask0_38_1076" style="mask-type:alpha" maskUnits="userSpaceOnUse" x="0" y="0" width="40" height="40">
<rect id="Bounding box" width="40" height="40" fill="#D9D9D9"/>
</mask>
<g mask="url(#mask0_38_1076)">
<path id="all_inclusive_2" d="M9.16667 29.1666C6.61111 29.1666 4.44444 28.2778 2.66667 26.5C0.888889 24.7222 0 22.5555 0 20C0 17.4444 0.888889 15.2778 2.66667 13.5C4.44444 11.7222 6.61111 10.8333 9.16667 10.8333C10.1944 10.8333 11.1806 11.0139 12.125 11.375C13.0694 11.7361 13.9167 12.25 14.6667 12.9166L17.5 15.5L15 17.75L12.4167 15.4166C11.9722 15.0278 11.4722 14.7222 10.9167 14.5C10.3611 14.2778 9.77778 14.1666 9.16667 14.1666C7.55556 14.1666 6.18056 14.7361 5.04167 15.875C3.90278 17.0139 3.33333 18.3889 3.33333 20C3.33333 21.6111 3.90278 22.9861 5.04167 24.125C6.18056 25.2639 7.55556 25.8333 9.16667 25.8333C9.77778 25.8333 10.3611 25.7222 10.9167 25.5C11.4722 25.2778 11.9722 24.9722 12.4167 24.5833L25.3333 12.9166C26.0833 12.25 26.9306 11.7361 27.875 11.375C28.8194 11.0139 29.8056 10.8333 30.8333 10.8333C33.3889 10.8333 35.5556 11.7222 37.3333 13.5C39.1111 15.2778 40 17.4444 40 20C40 22.5555 39.1111 24.7222 37.3333 26.5C35.5556 28.2778 33.3889 29.1666 30.8333 29.1666C29.8056 29.1666 28.8194 28.9861 27.875 28.625C26.9306 28.2639 26.0833 27.75 25.3333 27.0833L22.5 24.5L25 22.25L27.5833 24.5833C28.0278 24.9722 28.5278 25.2778 29.0833 25.5C29.6389 25.7222 30.2222 25.8333 30.8333 25.8333C32.4444 25.8333 33.8194 25.2639 34.9583 24.125C36.0972 22.9861 36.6667 21.6111 36.6667 20C36.6667 18.3889 36.0972 17.0139 34.9583 15.875C33.8194 14.7361 32.4444 14.1666 30.8333 14.1666C30.2222 14.1666 29.6389 14.2778 29.0833 14.5C28.5278 14.7222 28.0278 15.0278 27.5833 15.4166L14.6667 27.0833C13.9167 27.75 13.0694 28.2639 12.125 28.625C11.1806 28.9861 10.1944 29.1666 9.16667 29.1666Z" fill="#F24333"/>
</g>
</g>
</svg>
