<svg width="20" height="20" viewBox="0 0 20 20" fill="none" xmlns="http://www.w3.org/2000/svg">
<g id="card_membership">
<mask id="mask0_64_2156" style="mask-type:alpha" maskUnits="userSpaceOnUse" x="0" y="0" width="20" height="20">
<rect id="Bounding box" width="20" height="20" fill="#D9D9D9"/>
</mask>
<g mask="url(#mask0_64_2156)">
<path id="card_membership_2" d="M3.33332 10.8334V12.5001H16.6667V10.8334H3.33332ZM3.33332 1.66675H16.6667C17.125 1.66675 17.5174 1.82994 17.8437 2.15633C18.1701 2.48272 18.3333 2.87508 18.3333 3.33341V12.5001C18.3333 12.9584 18.1701 13.3508 17.8437 13.6772C17.5174 14.0036 17.125 14.1667 16.6667 14.1667H13.3333V18.3334L9.99999 16.6667L6.66666 18.3334V14.1667H3.33332C2.87499 14.1667 2.48263 14.0036 2.15624 13.6772C1.82985 13.3508 1.66666 12.9584 1.66666 12.5001V3.33341C1.66666 2.87508 1.82985 2.48272 2.15624 2.15633C2.48263 1.82994 2.87499 1.66675 3.33332 1.66675ZM3.33332 8.33342H16.6667V3.33341H3.33332V8.33342Z" fill="#2D2C3A"/>
</g>
</g>
</svg>
