<svg width="20" height="20" viewBox="0 0 20 20" fill="none" xmlns="http://www.w3.org/2000/svg">
<g id="change_circle">
<mask id="mask0_44_1405" style="mask-type:alpha" maskUnits="userSpaceOnUse" x="0" y="0" width="20" height="20">
<rect id="Bounding box" width="20" height="20" fill="#D9D9D9"/>
</mask>
<g mask="url(#mask0_44_1405)">
<path id="change_circle_2" d="M10.0416 15.8334L12.4166 13.4792L10.0416 11.1251L9.16663 12.0001L10.0625 12.8959C9.67357 12.9098 9.2951 12.8473 8.92704 12.7084C8.55899 12.5695 8.22913 12.3542 7.93746 12.0626C7.65968 11.7848 7.44788 11.4654 7.30204 11.1042C7.15621 10.7431 7.08329 10.382 7.08329 10.0209C7.08329 9.7848 7.11454 9.54869 7.17704 9.31258C7.23954 9.07647 7.32635 8.8473 7.43746 8.62508L6.52079 7.70842C6.28468 8.05564 6.11107 8.42369 5.99996 8.81258C5.88885 9.20147 5.83329 9.5973 5.83329 10.0001C5.83329 10.5279 5.93746 11.0487 6.14579 11.5626C6.35413 12.0765 6.65968 12.5348 7.06246 12.9376C7.46524 13.3404 7.91663 13.6424 8.41663 13.8438C8.91663 14.0452 9.43052 14.1529 9.95829 14.1667L9.16663 14.9584L10.0416 15.8334ZM13.4791 12.2917C13.7152 11.9445 13.8888 11.5765 14 11.1876C14.1111 10.7987 14.1666 10.4029 14.1666 10.0001C14.1666 9.4723 14.0659 8.948 13.8645 8.42717C13.6632 7.90633 13.3611 7.44453 12.9583 7.04175C12.5555 6.63897 12.1007 6.34036 11.5937 6.14591C11.0868 5.95147 10.5694 5.85425 10.0416 5.85425L10.8333 5.04175L9.95829 4.16675L7.58329 6.52092L9.95829 8.87508L10.8333 8.00008L9.91663 7.08341C10.2916 7.08341 10.6736 7.15633 11.0625 7.30217C11.4513 7.448 11.7847 7.6598 12.0625 7.93758C12.3402 8.21536 12.552 8.5348 12.6979 8.89592C12.8437 9.25703 12.9166 9.61814 12.9166 9.97925C12.9166 10.2154 12.8854 10.4515 12.8229 10.6876C12.7604 10.9237 12.6736 11.1529 12.5625 11.3751L13.4791 12.2917ZM9.99996 18.3334C8.84718 18.3334 7.76385 18.1147 6.74996 17.6772C5.73607 17.2397 4.85413 16.6459 4.10413 15.8959C3.35413 15.1459 2.76038 14.264 2.32288 13.2501C1.88538 12.2362 1.66663 11.1529 1.66663 10.0001C1.66663 8.8473 1.88538 7.76397 2.32288 6.75008C2.76038 5.73619 3.35413 4.85425 4.10413 4.10425C4.85413 3.35425 5.73607 2.7605 6.74996 2.323C7.76385 1.8855 8.84718 1.66675 9.99996 1.66675C11.1527 1.66675 12.2361 1.8855 13.25 2.323C14.2638 2.7605 15.1458 3.35425 15.8958 4.10425C16.6458 4.85425 17.2395 5.73619 17.677 6.75008C18.1145 7.76397 18.3333 8.8473 18.3333 10.0001C18.3333 11.1529 18.1145 12.2362 17.677 13.2501C17.2395 14.264 16.6458 15.1459 15.8958 15.8959C15.1458 16.6459 14.2638 17.2397 13.25 17.6772C12.2361 18.1147 11.1527 18.3334 9.99996 18.3334ZM9.99996 16.6667C11.8611 16.6667 13.4375 16.0209 14.7291 14.7292C16.0208 13.4376 16.6666 11.8612 16.6666 10.0001C16.6666 8.13897 16.0208 6.56258 14.7291 5.27092C13.4375 3.97925 11.8611 3.33341 9.99996 3.33341C8.13885 3.33341 6.56246 3.97925 5.27079 5.27092C3.97913 6.56258 3.33329 8.13897 3.33329 10.0001C3.33329 11.8612 3.97913 13.4376 5.27079 14.7292C6.56246 16.0209 8.13885 16.6667 9.99996 16.6667Z" fill="#216FE6"/>
</g>
</g>
</svg>
