<svg width="40" height="40" viewBox="0 0 40 40" fill="none" xmlns="http://www.w3.org/2000/svg">
<g id="heart_plus">
<mask id="mask0_38_1087" style="mask-type:alpha" maskUnits="userSpaceOnUse" x="0" y="0" width="40" height="40">
<rect id="Bounding box" width="40" height="40" fill="#D9D9D9"/>
</mask>
<g mask="url(#mask0_38_1087)">
<path id="heart_plus_2" d="M18.3332 35L13.0415 30.25C11.0415 28.4444 9.32623 26.8333 7.89567 25.4167C6.46511 24 5.28456 22.6667 4.354 21.4167C3.42345 20.1667 2.74289 18.9583 2.31234 17.7917C1.88178 16.625 1.6665 15.4028 1.6665 14.125C1.6665 11.5139 2.5415 9.34028 4.2915 7.60417C6.0415 5.86806 8.22206 5 10.8332 5C12.2776 5 13.6526 5.30556 14.9582 5.91667C16.2637 6.52778 17.3887 7.38889 18.3332 8.5C19.2776 7.38889 20.4026 6.52778 21.7082 5.91667C23.0137 5.30556 24.3887 5 25.8332 5C28.0832 5 29.9721 5.63194 31.4998 6.89583C33.0276 8.15972 34.0693 9.75 34.6248 11.6667H31.0832C30.5832 10.5556 29.8471 9.72222 28.8748 9.16667C27.9026 8.61111 26.8887 8.33333 25.8332 8.33333C24.4165 8.33333 23.1943 8.71528 22.1665 9.47917C21.1387 10.2431 20.1804 11.25 19.2915 12.5H17.3748C16.5137 11.25 15.5346 10.2431 14.4373 9.47917C13.3401 8.71528 12.1387 8.33333 10.8332 8.33333C9.24984 8.33333 7.88178 8.88194 6.729 9.97917C5.57623 11.0764 4.99984 12.4583 4.99984 14.125C4.99984 15.0417 5.19428 15.9722 5.58317 16.9167C5.97206 17.8611 6.6665 18.9514 7.6665 20.1875C8.6665 21.4236 10.0276 22.8681 11.7498 24.5208C13.4721 26.1736 15.6665 28.1667 18.3332 30.5C19.0554 29.8611 19.9026 29.125 20.8748 28.2917C21.8471 27.4583 22.6248 26.7639 23.2082 26.2083L25.5832 28.5833C24.9721 29.1389 24.1943 29.8264 23.2498 30.6458C22.3054 31.4653 21.4721 32.1944 20.7498 32.8333L18.3332 35ZM29.9998 28.3333V23.3333H24.9998V20H29.9998V15H33.3332V20H38.3332V23.3333H33.3332V28.3333H29.9998Z" fill="#F24333"/>
</g>
</g>
</svg>
