<svg width="20" height="20" viewBox="0 0 20 20" fill="none" xmlns="http://www.w3.org/2000/svg">
<g id="more_vert">
<mask id="mask0_64_2229" style="mask-type:alpha" maskUnits="userSpaceOnUse" x="0" y="0" width="20" height="20">
<rect id="Bounding box" width="20" height="20" fill="#D9D9D9"/>
</mask>
<g mask="url(#mask0_64_2229)">
<path id="more_vert_2" d="M10 16.6666C9.54167 16.6666 9.1493 16.5034 8.82292 16.177C8.49653 15.8506 8.33333 15.4583 8.33333 14.9999C8.33333 14.5416 8.49653 14.1492 8.82292 13.8228C9.1493 13.4964 9.54167 13.3333 10 13.3333C10.4583 13.3333 10.8507 13.4964 11.1771 13.8228C11.5035 14.1492 11.6667 14.5416 11.6667 14.9999C11.6667 15.4583 11.5035 15.8506 11.1771 16.177C10.8507 16.5034 10.4583 16.6666 10 16.6666ZM10 11.6666C9.54167 11.6666 9.1493 11.5034 8.82292 11.177C8.49653 10.8506 8.33333 10.4583 8.33333 9.99992C8.33333 9.54158 8.49653 9.14922 8.82292 8.82284C9.1493 8.49645 9.54167 8.33325 10 8.33325C10.4583 8.33325 10.8507 8.49645 11.1771 8.82284C11.5035 9.14922 11.6667 9.54158 11.6667 9.99992C11.6667 10.4583 11.5035 10.8506 11.1771 11.177C10.8507 11.5034 10.4583 11.6666 10 11.6666ZM10 6.66659C9.54167 6.66659 9.1493 6.50339 8.82292 6.177C8.49653 5.85061 8.33333 5.45825 8.33333 4.99992C8.33333 4.54159 8.49653 4.14922 8.82292 3.82284C9.1493 3.49645 9.54167 3.33325 10 3.33325C10.4583 3.33325 10.8507 3.49645 11.1771 3.82284C11.5035 4.14922 11.6667 4.54159 11.6667 4.99992C11.6667 5.45825 11.5035 5.85061 11.1771 6.177C10.8507 6.50339 10.4583 6.66659 10 6.66659Z" fill="#7C7C7C"/>
</g>
</g>
</svg>
