<svg width="48" height="37" viewBox="0 0 48 37" fill="none" xmlns="http://www.w3.org/2000/svg">
<g clip-path="url(#clip0_64_540)">
<path d="M8.69978 36.9189V34.4634C8.69978 33.5241 8.12332 32.909 7.13373 32.909C6.63893 32.909 6.1009 33.0711 5.731 33.6051C5.44277 33.1569 5.02964 32.909 4.40995 32.909C3.99682 32.909 3.58369 33.033 3.25703 33.4812V32.9901H2.39233V36.9189H3.25703V34.7495C3.25703 34.0533 3.62692 33.7243 4.20338 33.7243C4.77984 33.7243 5.06807 34.0915 5.06807 34.7495V36.9189H5.93277V34.7495C5.93277 34.0533 6.3459 33.7243 6.87912 33.7243C7.45558 33.7243 7.74381 34.0915 7.74381 34.7495V36.9189H8.69978ZM21.526 32.9901H20.1233V31.8028H19.2586V32.9901H18.4756V33.7672H19.2586V35.5696C19.2586 36.4707 19.6285 37 20.6181 37C20.988 37 21.4011 36.876 21.6894 36.7139L21.4396 35.9748C21.1898 36.137 20.9015 36.1799 20.695 36.1799C20.2818 36.1799 20.1185 35.9319 20.1185 35.5266V33.7672H21.5212V32.9901H21.526ZM28.8663 32.9042C28.3715 32.9042 28.0401 33.1522 27.8335 33.4764V32.9853H26.9688V36.9141H27.8335V34.7018C27.8335 34.0486 28.1217 33.6766 28.6597 33.6766C28.8231 33.6766 29.0296 33.7196 29.1978 33.7577L29.4476 32.9376C29.2746 32.9042 29.0296 32.9042 28.8663 32.9042ZM17.7742 33.3143C17.3611 33.0282 16.7846 32.9042 16.165 32.9042C15.1754 32.9042 14.5172 33.3953 14.5172 34.1725C14.5172 34.8257 15.012 35.1977 15.8767 35.3169L16.2899 35.3598C16.7414 35.4408 16.9912 35.5648 16.9912 35.7698C16.9912 36.0559 16.6597 36.2609 16.0833 36.2609C15.5068 36.2609 15.0505 36.0559 14.7622 35.8509L14.3491 36.5041C14.8007 36.8331 15.4204 36.9952 16.0401 36.9952C17.193 36.9952 17.8559 36.4612 17.8559 35.7269C17.8559 35.0308 17.3179 34.6636 16.4964 34.5397L16.0833 34.4968C15.7134 34.4538 15.4252 34.3728 15.4252 34.1296C15.4252 33.8435 15.7134 33.6814 16.1698 33.6814C16.6646 33.6814 17.1593 33.8864 17.4091 34.0104L17.7742 33.3143ZM40.7798 32.9042C40.285 32.9042 39.9536 33.1522 39.747 33.4764V32.9853H38.8823V36.9141H39.747V34.7018C39.747 34.0486 40.0352 33.6766 40.5733 33.6766C40.7366 33.6766 40.9432 33.7196 41.1113 33.7577L41.3611 32.9471C41.193 32.9042 40.948 32.9042 40.7798 32.9042ZM29.731 34.9545C29.731 36.1417 30.5573 37 31.8351 37C32.4116 37 32.8247 36.876 33.2378 36.5518L32.8247 35.8556C32.4932 36.1036 32.1666 36.2228 31.7919 36.2228C31.0905 36.2228 30.5957 35.7317 30.5957 34.9545C30.5957 34.2154 31.0905 33.7243 31.7919 33.6862C32.1617 33.6862 32.4932 33.8102 32.8247 34.0533L33.2378 33.3572C32.8247 33.0282 32.4116 32.909 31.8351 32.909C30.5573 32.9042 29.731 33.7672 29.731 34.9545ZM37.7294 34.9545V32.9901H36.8647V33.4812C36.5765 33.114 36.1633 32.909 35.6253 32.909C34.5108 32.909 33.6461 33.7672 33.6461 34.9545C33.6461 36.1417 34.5108 37 35.6253 37C36.2018 37 36.6149 36.7949 36.8647 36.4278V36.9189H37.7294V34.9545ZM34.5541 34.9545C34.5541 34.2583 35.0056 33.6862 35.7502 33.6862C36.4516 33.6862 36.9464 34.2202 36.9464 34.9545C36.9464 35.6506 36.4516 36.2228 35.7502 36.2228C35.0104 36.1799 34.5541 35.6458 34.5541 34.9545ZM24.2066 32.9042C23.0537 32.9042 22.2274 33.7243 22.2274 34.9497C22.2274 36.1799 23.0537 36.9952 24.2498 36.9952C24.8263 36.9952 25.4027 36.8331 25.8591 36.4612L25.446 35.8461C25.1145 36.094 24.7014 36.2562 24.2931 36.2562C23.755 36.2562 23.2218 36.0082 23.0969 35.3169H26.0224C26.0224 35.1929 26.0224 35.1118 26.0224 34.9879C26.0609 33.7243 25.3163 32.9042 24.2066 32.9042ZM24.2066 33.6433C24.7446 33.6433 25.1145 33.9723 25.1962 34.5826H23.1353C23.217 34.0533 23.5869 33.6433 24.2066 33.6433ZM45.6894 34.9545V31.4357H44.8247V33.4812C44.5364 33.114 44.1233 32.909 43.5853 32.909C42.4708 32.909 41.6061 33.7672 41.6061 34.9545C41.6061 36.1417 42.4708 37 43.5853 37C44.1618 37 44.5749 36.7949 44.8247 36.4278V36.9189H45.6894V34.9545ZM42.514 34.9545C42.514 34.2583 42.9656 33.6862 43.7102 33.6862C44.4116 33.6862 44.9063 34.2202 44.9063 34.9545C44.9063 35.6506 44.4116 36.2228 43.7102 36.2228C42.9656 36.1799 42.514 35.6458 42.514 34.9545ZM13.5661 34.9545V32.9901H12.7014V33.4812C12.4131 33.114 12 32.909 11.462 32.909C10.3475 32.909 9.48281 33.7672 9.48281 34.9545C9.48281 36.1417 10.3475 37 11.462 37C12.0385 37 12.4516 36.7949 12.7014 36.4278V36.9189H13.5661V34.9545ZM10.3523 34.9545C10.3523 34.2583 10.8039 33.6862 11.5485 33.6862C12.2498 33.6862 12.7446 34.2202 12.7446 34.9545C12.7446 35.6506 12.2498 36.2228 11.5485 36.2228C10.8039 36.1799 10.3523 35.6458 10.3523 34.9545Z" fill="black"/>
<path d="M30.4756 3.15173H17.486V26.3149H30.4756V3.15173Z" fill="#FF5A00"/>
<path d="M18.3507 14.7332C18.3507 10.0272 20.5797 5.85039 24 3.15168C21.4828 1.18724 18.3074 0 14.8439 0C6.63891 0 0 6.58943 0 14.7332C0 22.8771 6.63891 29.4665 14.8439 29.4665C18.3074 29.4665 21.4828 28.2793 24 26.3148C20.5749 23.6543 18.3507 19.4393 18.3507 14.7332Z" fill="#EB001B"/>
<path d="M48 14.7332C48 22.8771 41.3611 29.4665 33.1561 29.4665C29.6926 29.4665 26.5172 28.2793 24 26.3148C27.4636 23.6113 29.6493 19.4393 29.6493 14.7332C29.6493 10.0272 27.4203 5.85039 24 3.15168C26.5124 1.18724 29.6877 0 33.1513 0C41.3611 0 48 6.63235 48 14.7332Z" fill="#F79E1B"/>
</g>
<defs>
<clipPath id="clip0_64_540">
<rect width="48" height="37" fill="white"/>
</clipPath>
</defs>
</svg>
