<svg width="71" height="20" viewBox="0 0 71 20" fill="none" xmlns="http://www.w3.org/2000/svg">
<path d="M0 0.00325468H6.66091C7.26644 0.00325468 9.08306 -0.205045 9.89044 2.71115C10.496 4.58584 11.3034 7.50203 12.5144 11.8763H12.9181C14.1292 7.29373 15.1384 4.16924 15.5421 2.71115C16.3495 -0.205045 18.368 0.00325468 19.1753 0.00325468H25.4326V20H18.9735V8.12693H18.5698L15.1384 20H10.2941L6.86275 8.12693H6.25722V20H0M28.0566 0.00325468H34.5156V11.8763H35.1212L39.3599 2.08625C40.1673 0.211554 41.9839 0.00325468 41.9839 0.00325468H48.0393V20H41.5802V8.12693H41.1765L36.9378 17.917C36.1304 19.7917 34.1119 20 34.1119 20H28.0566M56.7186 13.9593V20H50.6633V9.58503H70.4441C69.6368 12.0846 66.8109 13.9593 63.5814 13.9593" fill="#0F754E"/>
<path d="M70.8478 8.33515C71.6552 4.58576 69.233 0.00317383 63.985 0.00317383H50.2595C50.6632 4.37746 54.2964 8.33515 58.1315 8.33515" fill="url(#paint0_linear_64_536)"/>
<defs>
<linearGradient id="paint0_linear_64_536" x1="68.4256" y1="-2.70472" x2="52.278" y2="-2.70472" gradientUnits="userSpaceOnUse">
<stop stop-color="#1F5CD7"/>
<stop offset="1" stop-color="#02AEFF"/>
</linearGradient>
</defs>
</svg>
