<svg width="71" height="23" viewBox="0 0 71 23" fill="none" xmlns="http://www.w3.org/2000/svg">
<g clip-path="url(#clip0_64_541)">
<path d="M46.2342 0.0354004C41.1979 0.0354004 36.6973 2.63983 36.6973 7.45171C36.6973 12.97 44.6793 13.3512 44.6793 16.1234C44.6793 17.2907 43.3386 18.3356 41.0486 18.3356C37.7987 18.3356 35.3698 16.8756 35.3698 16.8756L34.3304 21.7313C34.3304 21.7313 37.1286 22.9646 40.8435 22.9646C46.3497 22.9646 50.6825 20.2323 50.6825 15.3381C50.6825 9.507 42.6672 9.13718 42.6672 6.56407C42.6672 5.64968 43.7678 4.64778 46.0512 4.64778C48.6276 4.64778 50.7296 5.70962 50.7296 5.70962L51.7467 1.01982C51.7467 1.01982 49.4596 0.0354004 46.2342 0.0354004ZM0.15747 0.389348L0.0355225 1.09724C0.0355225 1.09724 2.15428 1.48413 4.06256 2.25587C6.51963 3.14083 6.69466 3.65601 7.10847 5.25613L11.6177 22.5996H17.6625L26.9748 0.389348H20.9439L14.9602 15.4902L12.5185 2.69001C12.2946 1.22504 11.1603 0.389348 9.77191 0.389348H0.15747ZM29.3999 0.389348L24.6689 22.5996H30.4198L35.1342 0.389348H29.3999ZM61.4748 0.389348C60.088 0.389348 59.3533 1.1301 58.8141 2.42455L50.3887 22.5996H56.4195L57.5863 19.2371H64.9337L65.6432 22.5996H70.9645L66.3222 0.389348H61.4748ZM62.2592 6.38986L64.0468 14.7242H59.2576L62.2592 6.38986Z" fill="#1434CB"/>
</g>
<defs>
<clipPath id="clip0_64_541">
<rect width="71" height="23" fill="white"/>
</clipPath>
</defs>
</svg>
